# xmcd CD database file
#
# Track frame offsets:
#	150
#	16619
#	36429
#	48161
#	66362
#	87577
#	109783
#	122921
#	140658
#	156210
#	173644
#	195061
#	211847
#	228889
#	248311
#	263033
#	276634
#	297402
#	312563
#	331543
#
# Disc length: 4697 seconds
#
# Revision: 2
# Processed by: cddbd v1.5.2PL0 Copyright (c) Steve Scherf et al.
# Submitted via: CDex 1.51
#
DISCID=17125714
DTITLE=Various Artist - ZM-PCP-21
DYEAR=1900
DGENRE=Blues
TTITLE0=5 Seconds Of Summer - She Looks So Perfect
TTITLE1=Aloe Black - The Man
TTITLE2=Avicii - Addicted To You
TTITLE3=Clean Bandit Ft jess Glynne - Rather Be
TTITLE4=Coldplay - Magic
TTITLE5=Duke Dumont Ft Jax Jones
TTITLE6=DVBBS and Borgeous Ft Tinie Tempah - Tsunami (jump)
TTITLE7=Enrique Iglesias Ft Pitbull - I'm A Freak
TTITLE8=Gorgon City FT MNEK - Ready For Your Love
TTITLE9=Idina Menzel - Let It Go
TTITLE10=John Legend - All Of Me
TTITLE11=John Martin - Anywhere For You
TTITLE12=Katy Perry Ft Juicy J - Dark Horse
TTITLE13=Kylie Minogue - Into The Blue
TTITLE14=Molly Smitten Downes - Children Of The Universe
TTITLE15=Mr Probez - Waves
TTITLE16=Route 94 Ft Jess Glynne - My Love
TTITLE17=Sam Smith - Money On My Mind
TTITLE18=Sigma - Nobody To Love
TTITLE19=Tiesto - Red Lights
EXTD=
EXTT0=
EXTT1=
EXTT2=
EXTT3=
EXTT4=
EXTT5=
EXTT6=
EXTT7=
EXTT8=
EXTT9=
EXTT10=
EXTT11=
EXTT12=
EXTT13=
EXTT14=
EXTT15=
EXTT16=
EXTT17=
EXTT18=
EXTT19=
PLAYORDER=
